<?xml version="1.0" encoding="iso-8859-1"?>
<!-- Generator: Adobe Illustrator 16.0.0, SVG Export Plug-In . SVG Version: 6.00 Build 0)  -->
<!DOCTYPE svg PUBLIC "-//W3C//DTD SVG 1.1//EN" "http://www.w3.org/Graphics/SVG/1.1/DTD/svg11.dtd">
<svg version="1.1" id="Capa_1" xmlns="http://www.w3.org/2000/svg" xmlns:xlink="http://www.w3.org/1999/xlink" x="0px" y="0px"
	 width="33.055px" height="33.055px" viewBox="0 0 33.055 33.055" style="enable-background:new 0 0 33.055 33.055;"
	 xml:space="preserve">
<g>
	<path d="M24.348,11.06c-0.02-0.589-0.568-1.381-0.568-1.381l-0.271-0.813c0,0,0.475-0.365,0.244-0.541
		C23.522,8.148,22.804,7.7,22.804,7.7s0.265-0.277,0.108-0.433c-0.155-0.155-0.487-0.244-0.487-0.244s0.277-0.575,0.055-0.785
		c-0.225-0.211-0.372-0.221-0.542-0.271c-0.171-0.051-0.29-1.059-0.46-1.355c-0.171-0.296-1.125-0.771-1.625-0.758
		c-0.501,0.014-1.058,0.785-1.058,0.785s-0.229-0.162-0.284-0.406c-0.054-0.244,0.284-0.244,0.298-0.447
		c0.015-0.203,0-0.474,0-0.474s0.421-0.271,0.488-0.637c0.068-0.365-0.095-0.596-0.095-0.596s0.026-2.221-1.979-2.072
		c-1.672,0.124-1.512,1.448-1.531,1.828c-0.019,0.381,0.004,0.854,0.014,1.098c0.009,0.243,0.108,0.622,0.108,0.622l-0.996,0.981
		c0,0-0.426-0.25-0.653-0.193c-0.228,0.057-0.585,0.146-0.68,0.323C13.391,4.843,13.093,5.75,12.7,6.021
		c-0.212,0.146-1.074,0.494-1.599,1.097c-0.445,0.512-0.598,1.279-0.433,1.504c0.15,0.204,0.708,0.306,1.266,0.224
		c0.778-0.115,1.613-0.47,1.822-0.359c0.359,0.188-0.045,0.938,0.731,1.652c0.25,0.23-0.266,3.317-0.354,3.871
		s-0.636,1.253-0.916,1.649c-0.28,0.396,0.2,0.52,0.2,0.52s-0.775,0.285-1.208,0.444c-0.432,0.158,0.78,0.445,0.78,0.445
		s-1.029,1.007-1.231,1.203s0.209,0.453,0.209,0.453s-0.268,0.235-0.774,0.681c-0.506,0.444,0.695,0.377,0.695,0.377
		s-1.021,1.001-1.3,1.272c-0.279,0.273,0.241,0.435,0.241,0.435s-0.67,0.78-0.954,1.109c-0.283,0.33,0.649,0.319,0.649,0.319
		s-1.077,0.876-1.409,1.146c-0.332,0.27,0.624,0.511,0.624,0.511s-0.478,0.687-0.752,1.081c-0.274,0.396,0.623,0.496,0.623,0.496
		s-0.431,0.646-0.754,1.13c-0.324,0.483,0.636,0.243,0.636,0.243s-0.545,0.681-0.775,1.356c-0.23,0.678,3.657,1.221,3.657,1.221
		s-0.258,0.847-0.705,0.988c-0.447,0.143-0.751,0.325-1.165,0.365c-0.413,0.041-0.434,0.515-0.434,0.515l2.221,0.081
		c0,0,0.669-0.163,0.88-0.214c0.211-0.052,0.42,0.432,0.42,0.432l1.018,0.06l0.065-0.764c0,0,2.275,1.312,3.441,1.436
		c1.165,0.122,4.522,0,4.522,0l-0.136-1.191c0,0,0.867,0.096,0.67-0.223c-0.197-0.317-0.595-0.972-0.595-0.972
		s0.955-0.521,0.743-1.021c-0.211-0.502-1.306-2.498-1.306-2.498s0.604,0.096,0.488-0.161c-0.115-0.258-0.749-1.485-0.749-1.485
		s0.479,0.117,0.343-0.222c-0.135-0.339-0.681-1.514-0.681-1.514s0.47,0.063,0.301-0.193c-0.169-0.259-0.572-1.442-0.572-1.442
		s0.944-0.169,0.784-0.463c-0.159-0.294-1.007-1.28-1.007-1.28s0.619-0.031,0.416-0.309c-0.203-0.278-0.704-1.221-0.704-1.221
		s0.664-0.188,0.438-0.521c-0.227-0.333-0.829-1.039-0.829-1.039s0.446-0.11,0.231-0.35c-0.214-0.24-0.539-0.575-0.765-0.81
		c-0.224-0.232-0.349-1.586-0.349-1.586s1.058,0.591,1.335,0.558c0.277-0.034,0.52-0.076,0.5-0.279
		c-0.021-0.204-0.21-0.44-0.21-0.44s1.429-0.861,2.403-1.774C24.02,11.977,24.356,11.291,24.348,11.06z M20.637,13.2
		c-0.271,0.095-1.035-0.237-1.191-0.325c-0.156-0.088-0.435,0.487-0.435,0.487s-0.208-0.772,0-1.273s0.597-1.436,0.597-1.436
		s0.985,0.312,1.246,0.217c0.26-0.095,0.847-0.474,1.036-0.379c0.19,0.096,0.568,0.237,0.589,0.515
		C22.499,11.283,20.908,13.105,20.637,13.2z"/>
</g>
<g>
</g>
<g>
</g>
<g>
</g>
<g>
</g>
<g>
</g>
<g>
</g>
<g>
</g>
<g>
</g>
<g>
</g>
<g>
</g>
<g>
</g>
<g>
</g>
<g>
</g>
<g>
</g>
<g>
</g>
</svg>
